<?xml version="1.0" encoding="utf-8"?>
<!-- Generator: Adobe Illustrator 21.0.2, SVG Export Plug-In . SVG Version: 6.00 Build 0)  -->
<svg version="1.1" id="Calque_1" xmlns="http://www.w3.org/2000/svg" xmlns:xlink="http://www.w3.org/1999/xlink" x="0px" y="0px"
	 width="213px" height="74.8px" viewBox="0 0 213 74.8" style="enable-background:new 0 0 213 74.8;" xml:space="preserve">
<rect width="100%" height="100%" fill="white" />
<style type="text/css">
	.st0{fill:#575756;}
	.st1{fill:#0196AB;}
</style>
<g>
	<g>
		<path class="st0" d="M9.3,71.7H8.8v-1.2c-0.5,0.9-1.3,1.4-2.6,1.4c-1.7,0-2.6-0.9-2.6-2.7v-5.1h0.5v4.9c0,0.8,0.2,1.4,0.5,1.8
			c0.3,0.4,0.9,0.7,1.7,0.7c1.4,0,2.3-0.6,2.5-1.9c0-0.1,0-0.3,0.1-0.5c0-0.2,0-0.5,0-0.8v-4.1h0.5V71.7z"/>
		<path class="st0" d="M12,64.1h0.5v1.2C13,64.4,13.8,64,15,64c1.7,0,2.6,0.9,2.6,2.7v5h-0.5v-4.9c0-0.8-0.1-1.4-0.4-1.8
			c-0.3-0.4-0.9-0.7-1.7-0.7c-1.4,0-2.3,0.6-2.5,1.9c0,0.1,0,0.3-0.1,0.5c0,0.2,0,0.5,0,0.8v4.1H12V64.1z"/>
		<path class="st0" d="M26.1,71.9c-1.1,0-2-0.4-2.6-1.2C23,70,22.7,69.1,22.7,68c0-1.2,0.3-2.1,0.8-2.8c0.6-0.8,1.4-1.2,2.6-1.2
			c1.4,0,2.4,0.6,2.9,1.9v-1.7h0.5v7.6h-0.5v-1.6C28.5,71.3,27.5,71.9,26.1,71.9z M23.9,70.4c0.5,0.7,1.2,1.1,2.2,1.1
			c1,0,1.7-0.4,2.2-1.1c0.4-0.6,0.7-1.4,0.7-2.5c0-1-0.2-1.8-0.7-2.5c-0.5-0.7-1.2-1.1-2.2-1.1c-1,0-1.7,0.4-2.2,1.1
			c-0.4,0.6-0.7,1.4-0.7,2.5C23.2,69,23.4,69.8,23.9,70.4z"/>
		<path class="st0" d="M38,71.7h-0.5v-1.2c-0.5,0.9-1.3,1.4-2.6,1.4c-1.7,0-2.6-0.9-2.6-2.7v-5.1h0.5v4.9c0,0.8,0.2,1.4,0.5,1.8
			c0.3,0.4,0.9,0.7,1.7,0.7c1.4,0,2.3-0.6,2.5-1.9c0-0.1,0-0.3,0.1-0.5c0-0.2,0-0.5,0-0.8v-4.1H38V71.7z"/>
		<path class="st0" d="M41.8,62.1v2.1h1.5v0.4h-1.5v7.2h-0.5v-9.7H41.8z"/>
		<path class="st0" d="M45.7,64.1h0.5v1.3c0.4-0.8,1.2-1.2,2.5-1.2l-0.3,0.4c-0.4,0-0.6,0-0.8,0.1c-0.3,0.1-0.7,0.3-1,0.7
			c-0.3,0.3-0.4,0.8-0.4,1.3v5h-0.5V64.1z"/>
		<path class="st0" d="M53.1,71.9c-1.1,0-1.9-0.4-2.5-1.2c-0.5-0.7-0.7-1.6-0.7-2.8c0-1.1,0.2-2,0.7-2.7c0.6-0.8,1.4-1.2,2.5-1.2
			c1.1,0,1.9,0.4,2.4,1.1c0.5,0.7,0.8,1.5,0.8,2.6V68h-5.9v0.1c0,0.9,0.2,1.7,0.7,2.3c0.5,0.7,1.2,1.1,2.1,1.1
			c1.2,0,2.1-0.6,2.5-1.7L56,70c-0.2,0.5-0.5,0.9-0.9,1.3C54.5,71.7,53.9,71.9,53.1,71.9z M55.8,67.6c0-0.9-0.2-1.6-0.6-2.2
			c-0.5-0.7-1.1-1-2-1c-0.9,0-1.6,0.3-2.1,0.9c-0.4,0.6-0.7,1.3-0.7,2.2H55.8z"/>
		<path class="st0" d="M61.6,64.1h0.5v1.3c0.4-0.8,1.2-1.2,2.5-1.2l-0.3,0.4c-0.4,0-0.6,0-0.8,0.1c-0.3,0.1-0.7,0.3-1,0.7
			c-0.3,0.3-0.4,0.8-0.4,1.3v5h-0.5V64.1z"/>
		<path class="st0" d="M69.1,71.9c-1.1,0-1.9-0.4-2.5-1.2c-0.5-0.7-0.7-1.6-0.7-2.8c0-1.1,0.2-2,0.7-2.7c0.6-0.8,1.4-1.2,2.5-1.2
			c1.1,0,1.9,0.4,2.4,1.1c0.5,0.7,0.8,1.5,0.8,2.6V68h-5.9v0.1c0,0.9,0.2,1.7,0.7,2.3c0.5,0.7,1.2,1.1,2.1,1.1
			c1.2,0,2.1-0.6,2.5-1.7l0.4,0.2c-0.2,0.5-0.5,0.9-0.9,1.3C70.5,71.7,69.8,71.9,69.1,71.9z M71.7,67.6c0-0.9-0.2-1.6-0.6-2.2
			c-0.5-0.7-1.1-1-2-1c-0.9,0-1.6,0.3-2.1,0.9c-0.4,0.6-0.7,1.3-0.7,2.2H71.7z"/>
		<path class="st0" d="M77.6,71.9c-1.1,0-2-0.4-2.5-1.2c-0.5-0.7-0.8-1.7-0.8-2.8c0-1.2,0.3-2.1,0.8-2.8c0.6-0.8,1.4-1.2,2.6-1.2
			c0.7,0,1.2,0.2,1.8,0.5c0.5,0.3,0.9,0.8,1.1,1.4v-1.7h0.5v7.2c0,1-0.2,1.7-0.5,2.1c-0.6,0.9-1.6,1.3-3,1.3c-0.8,0-1.4-0.2-1.9-0.5
			c-0.6-0.4-0.9-1-0.9-1.7H75c0,0.7,0.3,1.1,0.8,1.4c0.4,0.3,1,0.4,1.7,0.4c1.3,0,2.1-0.4,2.6-1.3c0.2-0.4,0.3-1.1,0.3-2.2v-0.8
			C79.9,71.3,79,71.9,77.6,71.9z M79.8,65.5c-0.5-0.7-1.2-1.1-2.2-1.1c-1,0-1.7,0.4-2.2,1.1c-0.4,0.6-0.7,1.4-0.7,2.5
			c0,1,0.2,1.8,0.7,2.5c0.5,0.7,1.2,1.1,2.2,1.1c1,0,1.7-0.4,2.2-1.1c0.4-0.6,0.7-1.4,0.7-2.5C80.5,66.9,80.2,66.1,79.8,65.5z"/>
		<path class="st0" d="M86.7,71.9c-1.1,0-2-0.4-2.6-1.2c-0.5-0.7-0.8-1.6-0.8-2.8c0-1.2,0.3-2.1,0.8-2.8c0.6-0.8,1.4-1.2,2.6-1.2
			c1.4,0,2.4,0.6,2.9,1.9v-1.7H90v7.6h-0.5v-1.6C89.1,71.3,88.1,71.9,86.7,71.9z M84.5,70.4c0.5,0.7,1.2,1.1,2.2,1.1
			c1,0,1.7-0.4,2.2-1.1c0.4-0.6,0.7-1.4,0.7-2.5c0-1-0.2-1.8-0.7-2.5c-0.5-0.7-1.2-1.1-2.2-1.1c-1,0-1.7,0.4-2.2,1.1
			c-0.4,0.6-0.7,1.4-0.7,2.5C83.8,69,84,69.8,84.5,70.4z"/>
		<path class="st0" d="M93.6,64.1h0.5v1.3c0.4-0.8,1.2-1.2,2.5-1.2l-0.3,0.4c-0.4,0-0.6,0-0.8,0.1c-0.3,0.1-0.7,0.3-1,0.7
			c-0.3,0.3-0.4,0.8-0.4,1.3v5h-0.5V64.1z"/>
		<path class="st0" d="M104.3,71.7h-0.5V70c-0.5,1.2-1.5,1.9-2.9,1.9c-1.1,0-2-0.4-2.6-1.2c-0.5-0.7-0.8-1.6-0.8-2.8
			c0-1.1,0.3-2.1,0.8-2.8c0.6-0.8,1.4-1.2,2.6-1.2c1.4,0,2.4,0.6,2.9,1.8v-4.6h0.5V71.7z M103.1,65.5c-0.5-0.7-1.2-1.1-2.2-1.1
			c-1,0-1.7,0.4-2.2,1.1c-0.4,0.6-0.7,1.4-0.7,2.5c0,1,0.2,1.8,0.7,2.5c0.5,0.7,1.2,1.1,2.2,1.1c1,0,1.7-0.4,2.2-1.1
			c0.4-0.6,0.7-1.4,0.7-2.5C103.8,66.9,103.6,66.1,103.1,65.5z"/>
		<path class="st0" d="M113.5,71.5c0.6,0,1.1-0.1,1.5-0.4c0.5-0.3,0.7-0.7,0.7-1.3c0-0.7-0.5-1.2-1.5-1.5c0,0-0.1,0-0.1,0
			c-0.1,0-0.1,0-0.3-0.1c-1.2-0.3-2-0.6-2.4-0.9c-0.4-0.3-0.6-0.8-0.6-1.3c0-0.7,0.3-1.2,0.8-1.5c0.5-0.3,1.1-0.5,1.8-0.5
			c0.7,0,1.3,0.2,1.7,0.6c0.5,0.4,0.7,0.9,0.8,1.6h-0.5c-0.2-1.2-0.9-1.8-2.2-1.8c-0.5,0-1,0.1-1.4,0.4c-0.5,0.3-0.7,0.7-0.7,1.2
			c0,0.8,0.8,1.3,2.3,1.7c0,0,0.1,0,0.1,0c0.8,0.2,1.4,0.4,1.7,0.6c0.5,0.3,0.8,0.8,0.8,1.5c0,0.7-0.3,1.2-0.9,1.6
			c-0.5,0.3-1.1,0.5-1.8,0.5c-0.8,0-1.5-0.2-2-0.6c-0.5-0.4-0.8-1-0.9-1.8h0.5C111.3,70.8,112.1,71.5,113.5,71.5z"/>
		<path class="st0" d="M123.9,71.7h-0.5v-1.2c-0.5,0.9-1.3,1.4-2.6,1.4c-1.7,0-2.6-0.9-2.6-2.7v-5.1h0.5v4.9c0,0.8,0.2,1.4,0.5,1.8
			c0.3,0.4,0.9,0.7,1.7,0.7c1.4,0,2.3-0.6,2.5-1.9c0-0.1,0-0.3,0.1-0.5c0-0.2,0-0.5,0-0.8v-4.1h0.5V71.7z"/>
		<path class="st0" d="M127.5,64.1h0.5v1.3c0.4-0.8,1.2-1.2,2.5-1.2l-0.3,0.4c-0.4,0-0.6,0-0.8,0.1c-0.3,0.1-0.7,0.3-1,0.7
			c-0.3,0.3-0.4,0.8-0.4,1.3v5h-0.5V64.1z"/>
		<path class="st0" d="M135.2,61.2h0.5v10.5h-0.5V61.2z"/>
		<path class="st0" d="M141.5,71.9c-1.1,0-1.9-0.4-2.5-1.2c-0.5-0.7-0.7-1.6-0.7-2.8c0-1.1,0.2-2,0.7-2.7c0.6-0.8,1.4-1.2,2.5-1.2
			c1.1,0,1.9,0.4,2.4,1.1c0.5,0.7,0.8,1.5,0.8,2.6V68h-5.9v0.1c0,0.9,0.2,1.7,0.7,2.3c0.5,0.7,1.2,1.1,2.1,1.1
			c1.2,0,2.1-0.6,2.5-1.7l0.4,0.2c-0.2,0.5-0.5,0.9-0.9,1.3C143,71.7,142.3,71.9,141.5,71.9z M144.2,67.6c0-0.9-0.2-1.6-0.6-2.2
			c-0.5-0.7-1.1-1-2-1c-0.9,0-1.6,0.3-2.1,0.9c-0.4,0.6-0.7,1.3-0.7,2.2H144.2z"/>
		<path class="st0" d="M149.7,71.5c0.6,0,1.1-0.1,1.5-0.4c0.5-0.3,0.7-0.7,0.7-1.3c0-0.7-0.5-1.2-1.5-1.5c0,0-0.1,0-0.1,0
			c-0.1,0-0.1,0-0.3-0.1c-1.2-0.3-2-0.6-2.4-0.9c-0.4-0.3-0.6-0.8-0.6-1.3c0-0.7,0.3-1.2,0.8-1.5c0.5-0.3,1.1-0.5,1.8-0.5
			c0.7,0,1.3,0.2,1.7,0.6c0.5,0.4,0.7,0.9,0.8,1.6h-0.5c-0.2-1.2-0.9-1.8-2.2-1.8c-0.5,0-1,0.1-1.4,0.4c-0.5,0.3-0.7,0.7-0.7,1.2
			c0,0.8,0.8,1.3,2.3,1.7c0,0,0.1,0,0.1,0c0.8,0.2,1.4,0.4,1.7,0.6c0.5,0.3,0.8,0.8,0.8,1.5c0,0.7-0.3,1.2-0.9,1.6
			c-0.5,0.3-1.1,0.5-1.8,0.5c-0.8,0-1.5-0.2-2-0.6c-0.5-0.4-0.8-1-0.9-1.8h0.5C147.5,70.8,148.3,71.5,149.7,71.5z"/>
		<path class="st0" d="M160.7,71.5c0.6,0,1.1-0.1,1.5-0.4c0.5-0.3,0.7-0.7,0.7-1.3c0-0.7-0.5-1.2-1.5-1.5c0,0-0.1,0-0.1,0
			c-0.1,0-0.1,0-0.3-0.1c-1.2-0.3-2-0.6-2.4-0.9c-0.4-0.3-0.6-0.8-0.6-1.3c0-0.7,0.3-1.2,0.8-1.5c0.5-0.3,1.1-0.5,1.8-0.5
			c0.7,0,1.3,0.2,1.7,0.6c0.5,0.4,0.7,0.9,0.8,1.6h-0.5c-0.2-1.2-0.9-1.8-2.2-1.8c-0.5,0-1,0.1-1.4,0.4c-0.5,0.3-0.7,0.7-0.7,1.2
			c0,0.8,0.8,1.3,2.3,1.7c0,0,0.1,0,0.1,0c0.8,0.2,1.4,0.4,1.7,0.6c0.5,0.3,0.8,0.8,0.8,1.5c0,0.7-0.3,1.2-0.9,1.6
			c-0.5,0.3-1.1,0.5-1.8,0.5c-0.8,0-1.5-0.2-2-0.6c-0.5-0.4-0.8-1-0.9-1.8h0.5C158.5,70.8,159.3,71.5,160.7,71.5z"/>
		<path class="st0" d="M168.7,71.9c-1.1,0-1.9-0.4-2.5-1.2c-0.5-0.7-0.7-1.6-0.7-2.8c0-1.1,0.2-2,0.7-2.7c0.6-0.8,1.4-1.2,2.5-1.2
			c1.1,0,1.9,0.4,2.4,1.1c0.5,0.7,0.8,1.5,0.8,2.6V68H166v0.1c0,0.9,0.2,1.7,0.7,2.3c0.5,0.7,1.2,1.1,2.1,1.1c1.2,0,2.1-0.6,2.5-1.7
			l0.4,0.2c-0.2,0.5-0.5,0.9-0.9,1.3C170.1,71.7,169.5,71.9,168.7,71.9z M171.4,67.6c0-0.9-0.2-1.6-0.6-2.2c-0.5-0.7-1.1-1-2-1
			c-0.9,0-1.6,0.3-2.1,0.9c-0.4,0.6-0.7,1.3-0.7,2.2H171.4z"/>
		<path class="st0" d="M174.5,64.1h0.5v1.3c0.4-0.8,1.2-1.2,2.5-1.2l-0.3,0.4c-0.4,0-0.6,0-0.8,0.1c-0.3,0.1-0.7,0.3-1,0.7
			c-0.3,0.3-0.4,0.8-0.4,1.3v5h-0.5V64.1z"/>
		<path class="st0" d="M178.5,64.1h0.5l2.6,7l2.7-7h0.5l-2.9,7.6h-0.5L178.5,64.1z"/>
		<path class="st0" d="M187.2,61.1c0.2,0,0.3,0.2,0.3,0.7c0,0.5-0.1,0.7-0.3,0.7c-0.2,0-0.3-0.2-0.3-0.7
			C186.9,61.3,187,61.1,187.2,61.1z M187,64.1h0.5v7.6H187V64.1z"/>
		<path class="st0" d="M195.5,71.2c-0.5,0.5-1.2,0.7-2.1,0.7c-1.1,0-1.9-0.4-2.5-1.2c-0.5-0.7-0.8-1.6-0.8-2.8
			c0-1.1,0.3-2.1,0.8-2.8c0.6-0.8,1.4-1.2,2.5-1.2c1.4,0,2.3,0.5,2.7,1.7l-0.4,0.3c-0.1-0.4-0.4-0.7-0.7-1c-0.4-0.4-1-0.5-1.6-0.5
			c-1,0-1.7,0.4-2.2,1.1c-0.4,0.6-0.7,1.5-0.7,2.5c0,1,0.2,1.8,0.7,2.5c0.5,0.7,1.2,1.1,2.2,1.1c0.6,0,1.1-0.2,1.6-0.5
			c0.4-0.3,0.7-0.8,0.9-1.4l0.4,0.2C196.1,70.4,195.9,70.9,195.5,71.2z"/>
		<path class="st0" d="M201.1,71.9c-1.1,0-1.9-0.4-2.5-1.2c-0.5-0.7-0.7-1.6-0.7-2.8c0-1.1,0.2-2,0.7-2.7c0.6-0.8,1.4-1.2,2.5-1.2
			c1.1,0,1.9,0.4,2.4,1.1c0.5,0.7,0.8,1.5,0.8,2.6V68h-5.9v0.1c0,0.9,0.2,1.7,0.7,2.3c0.5,0.7,1.2,1.1,2.1,1.1
			c1.2,0,2.1-0.6,2.5-1.7l0.4,0.2c-0.2,0.5-0.5,0.9-0.9,1.3C202.5,71.7,201.8,71.9,201.1,71.9z M203.7,67.6c0-0.9-0.2-1.6-0.6-2.2
			c-0.5-0.7-1.1-1-2-1c-0.9,0-1.6,0.3-2.1,0.9c-0.4,0.6-0.7,1.3-0.7,2.2H203.7z"/>
		<path class="st0" d="M208.9,71.5c0.6,0,1.1-0.1,1.5-0.4c0.5-0.3,0.7-0.7,0.7-1.3c0-0.7-0.5-1.2-1.5-1.5c0,0-0.1,0-0.1,0
			c-0.1,0-0.1,0-0.3-0.1c-1.2-0.3-2-0.6-2.4-0.9c-0.4-0.3-0.6-0.8-0.6-1.3c0-0.7,0.3-1.2,0.8-1.5c0.5-0.3,1.1-0.5,1.8-0.5
			c0.7,0,1.3,0.2,1.7,0.6c0.5,0.4,0.7,0.9,0.8,1.6h-0.5c-0.2-1.2-0.9-1.8-2.2-1.8c-0.5,0-1,0.1-1.4,0.4c-0.5,0.3-0.7,0.7-0.7,1.2
			c0,0.8,0.8,1.3,2.3,1.7c0,0,0.1,0,0.1,0c0.8,0.2,1.4,0.4,1.7,0.6c0.5,0.3,0.8,0.8,0.8,1.5c0,0.7-0.3,1.2-0.9,1.6
			c-0.5,0.3-1.1,0.5-1.8,0.5c-0.8,0-1.5-0.2-2-0.6c-0.5-0.4-0.8-1-0.9-1.8h0.5C206.7,70.8,207.5,71.5,208.9,71.5z"/>
	</g>
	<g>
		<g>
			<g>
				<g>
					<path class="st1" d="M19.4,57.8c-2.9,0-5.5-0.3-7.9-1c-2.4-0.6-4.4-1.6-6.1-2.9c-1.7-1.3-3-3.1-4-5.1C0.5,46.7,0,44.2,0,41.3
						v-0.5h6.3l0,0.5c0.1,4,1.2,7,3.5,8.8c2.3,1.9,5.6,2.8,9.6,2.8c1.3,0,2.7-0.2,4.1-0.5c1.4-0.3,2.6-0.8,3.7-1.4
						c1.1-0.6,2-1.5,2.8-2.5c0.7-1,1.1-2.2,1.1-3.7c0-1.5-0.3-2.7-1-3.7c-0.7-1-1.6-1.8-2.7-2.4c-1.2-0.6-2.6-1.1-4.2-1.5
						c-1.7-0.4-3.5-0.8-5.3-1.3c-2.2-0.5-4.2-1-6.2-1.5c-2-0.5-3.7-1.2-5.2-2.1c-1.5-0.9-2.7-2.1-3.6-3.6C2,27.2,1.5,25.3,1.5,23
						c0-1.7,0.4-3.3,1.2-4.8c0.8-1.5,1.9-2.8,3.3-4c1.4-1.1,3.2-2,5.3-2.6c2.1-0.6,4.4-1,7.1-1c2.4,0,4.7,0.3,6.9,0.8
						c2.2,0.5,4.1,1.4,5.6,2.6c1.6,1.2,2.9,2.7,3.8,4.5c0.9,1.8,1.4,4.1,1.4,6.7v0.5h-6.1v-0.5c0-3.5-1.1-6-3.2-7.6
						c-2.2-1.6-5-2.4-8.3-2.4c-2.4,0-4.3,0.3-5.7,0.9c-1.4,0.6-2.5,1.3-3.2,2.1c-0.7,0.8-1.2,1.6-1.4,2.4c-0.2,0.8-0.4,1.5-0.4,1.9
						c0,1.8,0.5,3.1,1.6,4.1c1.1,1,2.5,1.9,4.1,2.5c1.6,0.6,3.4,1.1,5.3,1.4c1.9,0.3,3.6,0.7,5,1.1c1.6,0.5,3.2,1,4.8,1.5
						c1.6,0.6,3.1,1.3,4.4,2.2c1.3,0.9,2.4,2.1,3.2,3.4c0.8,1.4,1.2,3.2,1.2,5.3c0,2.5-0.6,4.6-1.7,6.4c-1.1,1.7-2.5,3.2-4.2,4.2
						c-1.7,1-3.6,1.8-5.7,2.3C23.6,57.5,21.5,57.8,19.4,57.8z"/>
				</g>
				<g>
					<path class="st1" d="M61,57.8c-3.2,0-6.2-0.6-8.8-1.8c-2.6-1.2-4.8-2.8-6.6-4.9c-1.8-2.1-3.2-4.5-4.1-7.2
						c-0.9-2.7-1.4-5.7-1.4-8.8c0-17.1,11.6-24.3,20.4-24.3c8.3,0,14.4,4,17.6,10.1c3.1,5.7,2.8,14.4,2.8,14.4H46.4
						c-0.1,2.1,0,4.9,1.8,8.9c1,2.2,1.7,3.1,2.9,4.3c1.2,1.2,2.6,2.2,4.3,2.9c1.7,0.7,3.6,1.1,5.7,1.1c1.8,0,3.5-0.3,5-0.9
						c4-1.6,6-4.2,7-6c1.3-2.2,1.7-5.4,1.7-5.4h5.7c0,0-0.4,8.1-6.3,13.1C72.6,54.6,68.2,57.8,61,57.8z M61,15.8
						c-10.9,0-13.5,10.4-14.2,14.8h27.7C74.2,25.8,71.9,15.8,61,15.8z"/>
				</g>
				<g>
					<path class="st1" d="M165.3,56.7h-6.5V15.6h6.5V56.7z"/>
				</g>
				<g>
					<path class="st1" d="M191.8,57.8c-3.2,0-6.2-0.6-8.8-1.8c-2.6-1.2-4.8-2.8-6.6-4.9c-1.8-2.1-3.2-4.5-4.2-7.2
						c-1-2.7-1.5-5.7-1.5-8.9c0-3.3,0.5-6.4,1.4-9.4c0.9-2.9,2.3-5.6,4.1-7.8c1.8-2.2,4.1-4,6.9-5.3c2.7-1.3,5.9-1.9,9.4-1.9
						c3,0,5.9,0.6,8.5,1.8c2.2,1,4,2.4,5.4,4.3v-5h6.5v44.9h-6.4V51c-1.5,1.9-3.3,3.5-5.5,4.7C198.4,57.1,195.2,57.8,191.8,57.8z
						 M193.4,16c-3,0-5.5,0.6-7.6,1.7c-2.1,1.1-3.7,2.5-5,4.3c-1.3,1.8-2.2,3.8-2.7,6.1c-0.6,2.3-0.8,4.6-0.8,7c0,2.4,0.3,4.7,1,6.8
						c0.6,2.1,1.6,4,2.9,5.6c1.3,1.6,2.9,2.8,4.8,3.7c1.9,0.9,4.2,1.4,6.8,1.4c1.8,0,3.5-0.3,5.2-0.8c1.7-0.5,3.2-1.3,4.5-2.4
						c1.3-1,2.3-2.3,3.1-3.7c0.8-1.4,1.2-3.1,1.2-4.9V26.4c0-1.4-0.4-2.8-1.2-4.1c-0.8-1.3-1.8-2.4-3.1-3.3
						c-1.3-0.9-2.7-1.7-4.3-2.2C196.4,16.3,194.9,16,193.4,16z"/>
				</g>
			</g>
		</g>
		<path class="st1" d="M132.7,5.2c9.9-0.3,17.2,2.3,25.2,6.6h7C158.7,7.3,147.2,0,132.5,0C114,0,102.2,13.2,92.3,26.7l0-14.9h-6
			l0,44.9h6l0-19.2c9.9,2.8,19.6,20.2,38.9,20.2c0,0,0,0,0,0c0.1,0,0.2,0,0.3,0c3.5,0,6.7-0.6,9.3-1.9c2.6-1.3,4.9-3,6.7-5.2
			c1.8-2.2,3.2-4.7,4.1-7.5c0.9-2.8,1.3-5.8,1.3-8.9c0-3-0.5-6-1.3-8.8c-0.9-2.8-2.2-5.3-4-7.5c-1.8-2.2-4-3.9-6.7-5.3
			c-2.7-1.3-5.8-2-9.3-2c-3.5,0-6.7,0.7-9.4,2c-2.7,1.3-4.9,3.1-6.7,5.3c-1.8,2.2-3.1,4.7-4,7.5c-0.9,2.8-1.3,5.8-1.3,8.8
			c0,3.1,0.5,6,1.3,8.9c0.4,1.4,1,2.6,1.6,3.9c-5.5-4.4-10.5-10.7-18.6-14C104.5,19,115.6,5.6,132.7,5.2z M117.6,27.5
			c0.6-2.2,1.5-4.1,2.8-5.8c1.2-1.7,2.8-3,4.7-4.1c1.9-1,4.1-1.6,6.6-1.6c2.5,0,4.6,0.5,6.5,1.6c1.9,1,3.4,2.4,4.6,4.1
			c1.2,1.7,2.1,3.6,2.7,5.8c0.6,2.2,0.9,4.5,0.9,6.7c0,2.3-0.3,4.6-0.9,6.8c-0.6,2.2-1.5,4.1-2.7,5.8c-1.2,1.7-2.7,3-4.6,4
			c-1.8,1-4,1.5-6.5,1.5c-2.5,0-4.7-0.5-6.6-1.5c-1.9-1-3.4-2.4-4.7-4.1c-1.2-1.7-2.2-3.7-2.8-5.8c-0.6-2.2-0.9-4.5-0.9-6.8
			C116.7,31.9,117,29.7,117.6,27.5z"/>
	</g>
</g>
</svg>
